<svg width="131" height="49" viewBox="0 0 131 49" fill="none" xmlns="http://www.w3.org/2000/svg">
<g clip-path="url(#clip0_199_2200)">
<mask id="mask0_199_2200" style="mask-type:luminance" maskUnits="userSpaceOnUse" x="0" y="0" width="131" height="49">
<path d="M130.552 0.123047H0.552246V48.123H130.552V0.123047Z" fill="white"/>
</mask>
<g mask="url(#mask0_199_2200)">
<path d="M119.912 41.474C118.329 41.474 117.051 40.1916 117.051 38.6035V33.0893C117.051 31.5011 118.329 30.2188 119.912 30.2188H125.409C126.993 30.2188 128.271 31.5011 128.271 33.0893V38.6035C128.271 40.1916 126.993 41.474 125.409 41.474H119.912Z" fill="#90A1B9"/>
</g>
<mask id="mask1_199_2200" style="mask-type:luminance" maskUnits="userSpaceOnUse" x="0" y="0" width="131" height="49">
<path d="M130.552 0.123047H0.552246V48.123H130.552V0.123047Z" fill="white"/>
</mask>
<g mask="url(#mask1_199_2200)">
<path d="M119.912 29.4199C117.896 29.4199 116.254 31.0673 116.254 33.0895V38.6036C116.254 40.6258 117.896 42.2732 119.912 42.2732H125.409C127.425 42.2732 129.067 40.6258 129.067 38.6036V33.0895C129.067 31.0673 127.425 29.4199 125.409 29.4199H119.912ZM117.847 38.6036V33.0895C117.847 31.9452 118.772 31.0179 119.912 31.0179H125.409C126.55 31.0179 127.474 31.9452 127.474 33.0895V38.6036C127.474 39.7479 126.55 40.6752 125.409 40.6752H119.912C118.772 40.6752 117.847 39.7479 117.847 38.6036Z" fill="#90A1B9"/>
</g>
<mask id="mask2_199_2200" style="mask-type:luminance" maskUnits="userSpaceOnUse" x="0" y="0" width="131" height="49">
<path d="M130.552 0.123047H0.552246V48.123H130.552V0.123047Z" fill="white"/>
</mask>
<g mask="url(#mask2_199_2200)">
<path d="M119.912 27.0814C118.329 27.0814 117.051 25.799 117.051 24.2109V18.6967C117.051 17.1085 118.329 15.8262 119.912 15.8262H125.409C126.993 15.8262 128.271 17.1085 128.271 18.6967V24.2109C128.271 25.799 126.993 27.0814 125.409 27.0814H119.912Z" fill="#90A1B9"/>
</g>
<mask id="mask3_199_2200" style="mask-type:luminance" maskUnits="userSpaceOnUse" x="0" y="0" width="131" height="49">
<path d="M130.552 0.123047H0.552246V48.123H130.552V0.123047Z" fill="white"/>
</mask>
<g mask="url(#mask3_199_2200)">
<path d="M119.912 15.0371C117.896 15.0371 116.254 16.6845 116.254 18.7067V24.2208C116.254 26.243 117.896 27.8904 119.912 27.8904H125.409C127.425 27.8904 129.067 26.243 129.067 24.2208V18.7067C129.067 16.6845 127.425 15.0371 125.409 15.0371H119.912ZM117.847 24.2208V18.7067C117.847 17.5624 118.772 16.6351 119.912 16.6351H125.409C126.55 16.6351 127.474 17.5624 127.474 18.7067V24.2208C127.474 25.3651 126.55 26.2924 125.409 26.2924H119.912C118.772 26.2924 117.847 25.3651 117.847 24.2208Z" fill="#90A1B9"/>
</g>
<mask id="mask4_199_2200" style="mask-type:luminance" maskUnits="userSpaceOnUse" x="0" y="0" width="131" height="49">
<path d="M130.552 0.123047H0.552246V48.123H130.552V0.123047Z" fill="white"/>
</mask>
<g mask="url(#mask4_199_2200)">
<path d="M119.912 12.7396C118.329 12.7396 117.051 11.4572 117.051 9.86909V4.35491C117.051 2.76674 118.329 1.48438 119.912 1.48438H125.409C126.993 1.48438 128.271 2.76674 128.271 4.35491V9.86909C128.271 11.4572 126.993 12.7396 125.409 12.7396H119.912Z" fill="#90A1B9"/>
</g>
<mask id="mask5_199_2200" style="mask-type:luminance" maskUnits="userSpaceOnUse" x="0" y="0" width="131" height="49">
<path d="M130.552 0.123047H0.552246V48.123H130.552V0.123047Z" fill="white"/>
</mask>
<g mask="url(#mask5_199_2200)">
<path d="M119.912 0.685547C117.896 0.685547 116.254 2.3329 116.254 4.35509V9.86927C116.254 11.8915 117.896 13.5388 119.912 13.5388H125.409C127.425 13.5388 129.067 11.8915 129.067 9.86927V4.35509C129.067 2.3329 127.425 0.685547 125.409 0.685547H119.912ZM117.847 9.86927V4.35509C117.847 3.21082 118.772 2.28357 119.912 2.28357H125.409C126.55 2.28357 127.474 3.21082 127.474 4.35509V9.86927C127.474 11.0135 126.55 11.9408 125.409 11.9408H119.912C118.772 11.9408 117.847 11.0135 117.847 9.86927Z" fill="#90A1B9"/>
</g>
<mask id="mask6_199_2200" style="mask-type:luminance" maskUnits="userSpaceOnUse" x="0" y="0" width="131" height="49">
<path d="M130.552 0.123047H0.552246V48.123H130.552V0.123047Z" fill="white"/>
</mask>
<g mask="url(#mask6_199_2200)">
<path d="M4.5249 25.8291H8.02566C9.25486 25.8291 10.2382 25.543 10.9561 24.9709C11.6739 24.3987 12.0378 23.6194 12.0378 22.6527C12.0378 21.0251 11.1134 20.0189 9.27452 19.6145C10.4251 18.993 10.9954 18.1053 10.9954 16.9413C10.9954 15.9746 10.6611 15.215 9.98254 14.6626C9.30403 14.1102 8.32067 13.834 7.0128 13.834H4.5249V25.8192V25.8291ZM6.69812 14.6034C8.90085 14.6034 9.99238 15.4024 9.99238 17.0004C9.99238 18.5985 8.90085 19.3876 6.72763 19.3876H5.43943V14.6034H6.68829H6.69812ZM7.52415 20.1768C9.88421 20.1768 11.0544 20.9955 11.0544 22.633C11.0544 23.3728 10.7889 23.9647 10.2579 24.3987C9.72687 24.8426 8.95002 25.0596 7.92732 25.0596H5.44926V20.1768H7.52415Z" fill="#90A1B9"/>
</g>
<mask id="mask7_199_2200" style="mask-type:luminance" maskUnits="userSpaceOnUse" x="0" y="0" width="131" height="49">
<path d="M130.552 0.123047H0.552246V48.123H130.552V0.123047Z" fill="white"/>
</mask>
<g mask="url(#mask7_199_2200)">
<path d="M14.0637 13.834H13.218V25.8192H14.0637V13.834Z" fill="#90A1B9"/>
</g>
<mask id="mask8_199_2200" style="mask-type:luminance" maskUnits="userSpaceOnUse" x="0" y="0" width="131" height="49">
<path d="M130.552 0.123047H0.552246V48.123H130.552V0.123047Z" fill="white"/>
</mask>
<g mask="url(#mask8_199_2200)">
<path d="M21.0848 25.1679C20.9569 25.1679 20.8979 25.0298 20.8979 24.7635V19.8313C20.8979 19.1605 20.6718 18.6476 20.1997 18.2924C19.7376 17.9373 19.1476 17.7598 18.4395 17.7598C17.6332 17.7598 16.7875 18.036 15.9025 18.5982V19.4663C16.7678 18.7955 17.5643 18.4601 18.3019 18.4601C19.4622 18.4601 20.0424 19.0027 20.0424 20.0779V21.0841C18.5772 21.163 17.4463 21.449 16.6498 21.9423C15.8533 22.4355 15.46 23.1161 15.46 23.9743C15.46 24.5366 15.6665 25.0002 16.0696 25.3948C16.4827 25.7894 16.9842 25.9768 17.5742 25.9768C18.3904 25.9768 19.2066 25.6513 20.0326 25.0002C20.0621 25.3948 20.1211 25.6611 20.1997 25.7894C20.2784 25.9176 20.4063 25.9866 20.6029 25.9866C20.9373 25.9866 21.4683 25.7104 22.196 25.1679V24.4675C21.606 24.9312 21.2421 25.1679 21.0749 25.1679M20.0424 24.2702C19.3049 24.9509 18.5772 25.2863 17.8594 25.2863C17.4168 25.2863 17.0432 25.158 16.7482 24.9114C16.4532 24.655 16.3056 24.3492 16.3056 23.9842C16.3056 23.3233 16.6597 22.7906 17.3677 22.3664C18.0757 21.9423 18.9706 21.7548 20.0424 21.7943V24.2801V24.2702Z" fill="#90A1B9"/>
</g>
<mask id="mask9_199_2200" style="mask-type:luminance" maskUnits="userSpaceOnUse" x="0" y="0" width="131" height="49">
<path d="M130.552 0.123047H0.552246V48.123H130.552V0.123047Z" fill="white"/>
</mask>
<g mask="url(#mask9_199_2200)">
<path d="M26.4343 17.7695C25.3231 17.7695 24.4086 18.1641 23.6908 18.9533C22.9729 19.7424 22.6189 20.7584 22.6189 22.0013C22.6189 23.2443 22.9729 24.1616 23.6809 24.8916C24.3889 25.6216 25.3231 25.9964 26.4638 25.9964C27.1423 25.9964 27.8602 25.8583 28.6469 25.592V24.714C27.9094 25.0198 27.2013 25.1777 26.5327 25.1777C25.6083 25.1777 24.8708 24.8817 24.3299 24.2997C23.7793 23.7079 23.5039 22.9187 23.5039 21.9224C23.5039 20.9261 23.7793 20.1468 24.3299 19.5353C24.8806 18.9237 25.5886 18.6179 26.4737 18.6179C27.0833 18.6179 27.7619 18.7856 28.519 19.121V18.1838C27.7422 17.9175 27.044 17.7893 26.4343 17.7893" fill="#90A1B9"/>
</g>
<mask id="mask10_199_2200" style="mask-type:luminance" maskUnits="userSpaceOnUse" x="0" y="0" width="131" height="49">
<path d="M130.552 0.123047H0.552246V48.123H130.552V0.123047Z" fill="white"/>
</mask>
<g mask="url(#mask10_199_2200)">
<path d="M30.6235 13.834H29.7876V25.8192H30.6235V13.834Z" fill="#90A1B9"/>
</g>
<mask id="mask11_199_2200" style="mask-type:luminance" maskUnits="userSpaceOnUse" x="0" y="0" width="131" height="49">
<path d="M130.552 0.123047H0.552246V48.123H130.552V0.123047Z" fill="white"/>
</mask>
<g mask="url(#mask11_199_2200)">
<path d="M35.0879 17.9277L30.7415 21.6762L35.7172 25.8291H36.8678L31.892 21.6762L36.1991 17.9277H35.0879Z" fill="#90A1B9"/>
</g>
<mask id="mask12_199_2200" style="mask-type:luminance" maskUnits="userSpaceOnUse" x="0" y="0" width="131" height="49">
<path d="M130.552 0.123047H0.552246V48.123H130.552V0.123047Z" fill="white"/>
</mask>
<g mask="url(#mask12_199_2200)">
<path d="M36.8479 17.9275V25.8288H37.6838V20.285C38.3524 19.1605 39.1391 18.5982 40.0536 18.5982C40.683 18.5982 41.1845 18.835 41.5582 19.3085C41.9319 19.782 42.1187 20.4527 42.1187 21.3307V25.8288H42.9644V20.4429C43.3479 19.8017 43.7117 19.3282 44.0756 19.0323C44.4296 18.7363 44.8524 18.5982 45.3441 18.5982C45.9931 18.5982 46.4946 18.8448 46.8585 19.3282C47.2125 19.8214 47.3993 20.4922 47.3993 21.3405V25.819H48.2352V20.9657C48.2352 19.999 47.9894 19.2197 47.4878 18.6377C46.9863 18.0557 46.3275 17.7598 45.5113 17.7598C44.4296 17.7598 43.5151 18.3911 42.7776 19.6537C42.2859 18.3911 41.4402 17.7598 40.2307 17.7598C39.1981 17.7598 38.3623 18.2727 37.7231 19.3085H37.6936V17.9176H36.8577L36.8479 17.9275Z" fill="#90A1B9"/>
</g>
<mask id="mask13_199_2200" style="mask-type:luminance" maskUnits="userSpaceOnUse" x="0" y="0" width="131" height="49">
<path d="M130.552 0.123047H0.552246V48.123H130.552V0.123047Z" fill="white"/>
</mask>
<g mask="url(#mask13_199_2200)">
<path d="M55.1089 25.1679C54.9811 25.1679 54.9221 25.0298 54.9221 24.7635V19.8313C54.9221 19.1605 54.6861 18.6476 54.2239 18.2924C53.7617 17.9373 53.1717 17.7598 52.4637 17.7598C51.6574 17.7598 50.8117 18.036 49.9266 18.5982V19.4663C50.7822 18.7955 51.5885 18.4601 52.326 18.4601C53.4864 18.4601 54.0666 19.0027 54.0666 20.0779V21.0841C52.6014 21.163 51.4705 21.449 50.674 21.9423C49.8775 22.4355 49.4841 23.1161 49.4841 23.9743C49.4841 24.5366 49.6906 25.0002 50.1036 25.3948C50.5167 25.7894 51.0182 25.9768 51.6082 25.9768C52.4244 25.9768 53.2406 25.6513 54.0666 25.0002C54.1059 25.3948 54.1551 25.6611 54.2338 25.7894C54.3124 25.9176 54.4403 25.9866 54.6369 25.9866C54.9713 25.9866 55.5023 25.7104 56.23 25.1679V24.4675C55.64 24.9312 55.2663 25.1679 55.1089 25.1679ZM54.0666 24.2702C53.3291 24.9509 52.5915 25.2863 51.8835 25.2863C51.441 25.2863 51.0673 25.158 50.7723 24.9114C50.4773 24.6648 50.3298 24.3492 50.3298 23.9842C50.3298 23.3233 50.6838 22.7906 51.3918 22.3664C52.0999 21.9423 52.9947 21.7548 54.0666 21.7943V24.2801V24.2702Z" fill="#90A1B9"/>
</g>
<mask id="mask14_199_2200" style="mask-type:luminance" maskUnits="userSpaceOnUse" x="0" y="0" width="131" height="49">
<path d="M130.552 0.123047H0.552246V48.123H130.552V0.123047Z" fill="white"/>
</mask>
<g mask="url(#mask14_199_2200)">
<path d="M63.2118 17.9277H60.0552C58.9736 17.9277 58.1574 18.1941 57.5772 18.7169C56.997 19.2397 56.7118 19.9203 56.7118 20.7489C56.7118 21.3309 56.8888 21.8636 57.2428 22.3371C57.5969 22.8205 58.118 23.1558 58.8162 23.363V23.3926C57.764 23.6984 57.2428 24.1226 57.2428 24.6848C57.2428 25.2471 57.6657 25.6121 58.5212 25.8094V25.839C56.9872 26.0856 56.23 26.7267 56.23 27.7526C56.23 28.3938 56.525 28.8969 57.1248 29.2915C57.7247 29.6762 58.5704 29.8735 59.6717 29.8735C60.7731 29.8735 61.6385 29.6663 62.258 29.2619C62.8775 28.8476 63.1922 28.2952 63.1922 27.5751C63.1922 26.9734 62.9955 26.4801 62.612 26.1152C62.2285 25.7502 61.4811 25.5332 60.3601 25.474C59.2391 25.4148 58.5802 25.3063 58.3737 25.1682C58.1574 25.0301 58.0492 24.8427 58.0492 24.6158C58.0492 24.4185 58.1279 24.2508 58.295 24.1028C58.4622 23.9549 58.8654 23.797 59.5144 23.6293C60.1634 23.4616 60.6846 23.2841 61.0779 23.1164C61.4713 22.9388 61.8056 22.6626 62.0908 22.2779C62.376 21.8932 62.5136 21.3704 62.5136 20.7193C62.5136 19.9894 62.1498 19.289 61.4319 18.6281H63.2118V17.9475V17.9277ZM62.376 27.6441C62.376 28.1078 62.14 28.4727 61.6581 28.7588C61.1763 29.0449 60.5273 29.183 59.7209 29.183C57.9312 29.183 57.0363 28.6996 57.0363 27.723C57.0363 26.7465 57.9804 26.2631 59.8782 26.2631C61.5401 26.2631 62.376 26.7267 62.376 27.654M61.7073 20.7292C61.7073 21.3112 61.5008 21.8044 61.0878 22.2187C60.6748 22.633 60.1831 22.8402 59.6029 22.8402C59.0227 22.8402 58.531 22.633 58.1279 22.2089C57.7247 21.7946 57.5182 21.2816 57.5182 20.6898C57.5182 20.0979 57.7149 19.6244 58.118 19.2298C58.5114 18.8254 59.0031 18.6281 59.5931 18.6281C60.1831 18.6281 60.6748 18.8353 61.0878 19.2397C61.5008 19.654 61.7073 20.1472 61.7073 20.7193" fill="#90A1B9"/>
</g>
<mask id="mask15_199_2200" style="mask-type:luminance" maskUnits="userSpaceOnUse" x="0" y="0" width="131" height="49">
<path d="M130.552 0.123047H0.552246V48.123H130.552V0.123047Z" fill="white"/>
</mask>
<g mask="url(#mask15_199_2200)">
<path d="M65.0115 13.834H64.1658V15.2742H65.0115V13.834Z" fill="#90A1B9"/>
</g>
<mask id="mask16_199_2200" style="mask-type:luminance" maskUnits="userSpaceOnUse" x="0" y="0" width="131" height="49">
<path d="M130.552 0.123047H0.552246V48.123H130.552V0.123047Z" fill="white"/>
</mask>
<g mask="url(#mask16_199_2200)">
<path d="M65.0115 17.9277H64.1658V25.8291H65.0115V17.9277Z" fill="#90A1B9"/>
</g>
<mask id="mask17_199_2200" style="mask-type:luminance" maskUnits="userSpaceOnUse" x="0" y="0" width="131" height="49">
<path d="M130.552 0.123047H0.552246V48.123H130.552V0.123047Z" fill="white"/>
</mask>
<g mask="url(#mask17_199_2200)">
<path d="M70.3511 17.7695C69.2399 17.7695 68.3254 18.1641 67.6075 18.9533C66.8897 19.7424 66.5356 20.7584 66.5356 22.0013C66.5356 23.2443 66.8897 24.1616 67.5977 24.8916C68.3057 25.6216 69.2399 25.9964 70.3806 25.9964C71.0493 25.9964 71.7868 25.8583 72.5636 25.592V24.714C71.8261 25.0198 71.1181 25.1777 70.4494 25.1777C69.5251 25.1777 68.7875 24.8817 68.2369 24.2997C67.6862 23.7079 67.4108 22.9187 67.4108 21.9224C67.4108 20.9261 67.6862 20.1468 68.2369 19.5353C68.7875 18.9237 69.4956 18.6179 70.3806 18.6179C70.9903 18.6179 71.6688 18.7856 72.426 19.121V18.1838C71.6491 17.9175 70.9509 17.7893 70.3412 17.7893" fill="#90A1B9"/>
</g>
<mask id="mask18_199_2200" style="mask-type:luminance" maskUnits="userSpaceOnUse" x="0" y="0" width="131" height="49">
<path d="M130.552 0.123047H0.552246V48.123H130.552V0.123047Z" fill="white"/>
</mask>
<g mask="url(#mask18_199_2200)">
<path d="M79.6929 13.834V18.4012C78.8669 17.977 78.0999 17.7699 77.3722 17.7699C76.2315 17.7699 75.2875 18.1644 74.5303 18.9437C73.7731 19.723 73.3994 20.6996 73.3994 21.8734C73.3994 23.0473 73.7829 24.0041 74.5499 24.8032C75.317 25.6022 76.2512 25.9967 77.3722 25.9967C78.208 25.9967 78.9751 25.7403 79.6929 25.2273V25.8291H80.5386V13.8438H79.6929V13.834ZM79.6929 24.448C79.0144 24.9314 78.3064 25.1681 77.5787 25.1681C76.6347 25.1681 75.8578 24.8525 75.2285 24.2113C74.5991 23.5701 74.2943 22.7711 74.2943 21.8143C74.2943 20.8574 74.5893 20.0979 75.1695 19.4961C75.7595 18.8944 76.497 18.5886 77.4017 18.5886C78.1785 18.5886 78.9357 18.8352 79.6831 19.3284V24.448H79.6929Z" fill="#90A1B9"/>
</g>
<mask id="mask19_199_2200" style="mask-type:luminance" maskUnits="userSpaceOnUse" x="0" y="0" width="131" height="49">
<path d="M130.552 0.123047H0.552246V48.123H130.552V0.123047Z" fill="white"/>
</mask>
<g mask="url(#mask19_199_2200)">
<path d="M83.656 24.2503C83.0266 23.6387 82.712 22.889 82.712 22.0111C82.712 21.873 82.7218 21.7349 82.7415 21.5968H88.9465C88.9465 20.4229 88.6121 19.4858 87.9336 18.8052C87.2649 18.1246 86.4389 17.7793 85.4654 17.7793C84.423 17.7793 83.5675 18.164 82.8791 18.9236C82.1908 19.6831 81.8564 20.64 81.8564 21.804C81.8564 23.0271 82.2301 24.0333 82.9676 24.8225C83.7052 25.6116 84.6492 26.0062 85.78 26.0062C86.9109 26.0062 87.9041 25.6609 88.8088 24.9606V24.0037C87.8549 24.783 86.8814 25.1776 85.8784 25.1776C85.0229 25.1776 84.2853 24.8718 83.656 24.2602M83.7937 19.2195C84.2657 18.8151 84.8262 18.6079 85.4654 18.6079C86.8322 18.6079 87.6583 19.3773 87.9631 20.926H82.8595C83.0168 20.1862 83.3217 19.6239 83.7937 19.2195Z" fill="#90A1B9"/>
</g>
<mask id="mask20_199_2200" style="mask-type:luminance" maskUnits="userSpaceOnUse" x="0" y="0" width="131" height="49">
<path d="M130.552 0.123047H0.552246V48.123H130.552V0.123047Z" fill="white"/>
</mask>
<g mask="url(#mask20_199_2200)">
<path d="M92.4176 17.7695C91.7096 17.7695 91.1097 17.9767 90.6181 18.4009C90.1264 18.825 89.8707 19.338 89.8707 19.9397C89.8707 20.3639 90.0084 20.7486 90.264 21.0938C90.5296 21.4391 91.1097 21.7942 92.0046 22.1493C92.8994 22.5044 93.4501 22.8004 93.6566 23.0371C93.8631 23.2738 93.9615 23.5205 93.9615 23.7967C93.9615 24.2011 93.8041 24.5266 93.4993 24.793C93.1846 25.0494 92.7913 25.1777 92.2996 25.1777C91.5817 25.1777 90.7557 24.9409 89.8215 24.4477V25.2664C90.6082 25.7498 91.3949 25.9964 92.1914 25.9964C92.9191 25.9964 93.5386 25.7893 94.0303 25.3651C94.5318 24.9409 94.7777 24.428 94.7777 23.8164C94.7777 23.3528 94.64 22.9385 94.3647 22.5735C94.0893 22.1986 93.5091 21.8435 92.6143 21.4884C91.7293 21.1431 91.1786 20.8472 90.9819 20.6302C90.7852 20.4033 90.6869 20.1567 90.6869 19.8904C90.6869 19.5155 90.8541 19.1999 91.1786 18.9335C91.5031 18.6771 91.9063 18.5488 92.3783 18.5488C93.0174 18.5488 93.7353 18.8152 94.5318 19.3577V18.4502C93.7746 18.0063 93.0666 17.7794 92.4274 17.7794" fill="#90A1B9"/>
</g>
<mask id="mask21_199_2200" style="mask-type:luminance" maskUnits="userSpaceOnUse" x="0" y="0" width="131" height="49">
<path d="M130.552 0.123047H0.552246V48.123H130.552V0.123047Z" fill="white"/>
</mask>
<g mask="url(#mask21_199_2200)">
<path d="M96.9411 13.834H96.0955V15.2742H96.9411V13.834Z" fill="#90A1B9"/>
</g>
<mask id="mask22_199_2200" style="mask-type:luminance" maskUnits="userSpaceOnUse" x="0" y="0" width="131" height="49">
<path d="M130.552 0.123047H0.552246V48.123H130.552V0.123047Z" fill="white"/>
</mask>
<g mask="url(#mask22_199_2200)">
<path d="M96.9411 17.9277H96.0955V25.8291H96.9411V17.9277Z" fill="#90A1B9"/>
</g>
<mask id="mask23_199_2200" style="mask-type:luminance" maskUnits="userSpaceOnUse" x="0" y="0" width="131" height="49">
<path d="M130.552 0.123047H0.552246V48.123H130.552V0.123047Z" fill="white"/>
</mask>
<g mask="url(#mask23_199_2200)">
<path d="M105.034 17.9277H101.878C100.796 17.9277 99.9796 18.1941 99.3994 18.7169C98.8193 19.2397 98.5341 19.9203 98.5341 20.7489C98.5341 21.3309 98.7111 21.8636 99.0651 22.3371C99.4191 22.8205 99.9501 23.1558 100.638 23.363V23.3926C99.5863 23.6984 99.0651 24.1226 99.0651 24.6848C99.0651 25.2471 99.488 25.6121 100.343 25.8094V25.839C98.8094 26.0856 98.0522 26.7267 98.0522 27.7526C98.0522 28.3938 98.3472 28.8969 98.9471 29.2915C99.5469 29.6762 100.393 29.8735 101.494 29.8735C102.595 29.8735 103.461 29.6663 104.08 29.2619C104.7 28.8476 105.005 28.2952 105.005 27.5751C105.005 26.9734 104.808 26.4801 104.424 26.1152C104.041 25.7502 103.294 25.5332 102.173 25.474C101.061 25.4148 100.402 25.3063 100.186 25.1682C99.9698 25.0301 99.8616 24.8427 99.8616 24.6158C99.8616 24.4185 99.9501 24.2508 100.107 24.1028C100.275 23.9549 100.678 23.797 101.327 23.6293C101.976 23.4616 102.497 23.2841 102.89 23.1164C103.284 22.9388 103.618 22.6626 103.903 22.2779C104.188 21.8932 104.326 21.3704 104.326 20.7193C104.326 19.9894 103.962 19.289 103.244 18.6281H105.024V17.9475L105.034 17.9277ZM104.198 27.6441C104.198 28.1078 103.962 28.4727 103.48 28.7588C102.999 29.035 102.359 29.183 101.543 29.183C99.7535 29.183 98.8586 28.6996 98.8586 27.723C98.8586 26.7465 99.8125 26.2631 101.71 26.2631C103.372 26.2631 104.208 26.7267 104.208 27.654M103.539 20.7292C103.539 21.3112 103.333 21.8044 102.92 22.2187C102.507 22.633 102.015 22.8402 101.435 22.8402C100.855 22.8402 100.363 22.633 99.96 22.2089C99.5568 21.7946 99.3503 21.2816 99.3503 20.6898C99.3503 20.0979 99.547 19.6244 99.9501 19.2298C100.343 18.8254 100.835 18.6281 101.425 18.6281C102.015 18.6281 102.507 18.8353 102.92 19.2397C103.333 19.654 103.539 20.1472 103.539 20.7193" fill="#90A1B9"/>
</g>
<mask id="mask24_199_2200" style="mask-type:luminance" maskUnits="userSpaceOnUse" x="0" y="0" width="131" height="49">
<path d="M130.552 0.123047H0.552246V48.123H130.552V0.123047Z" fill="white"/>
</mask>
<g mask="url(#mask24_199_2200)">
<path d="M105.86 17.9273V25.8286H106.696V20.2848C107.374 19.1603 108.23 18.598 109.272 18.598C110.698 18.598 111.416 19.5056 111.416 21.3305V25.8286H112.252V21.0148C112.252 19.9988 111.986 19.2096 111.455 18.6375C110.924 18.0654 110.216 17.7793 109.331 17.7793C108.26 17.7793 107.394 18.2922 106.735 19.3083H106.696V17.9371H105.86V17.9273Z" fill="#90A1B9"/>
</g>
</g>
<defs>
<clipPath id="clip0_199_2200">
<rect width="130" height="48" fill="white" transform="translate(0.552246 0.123047)"/>
</clipPath>
</defs>
</svg>
