<svg width="288" height="72" viewBox="0 0 288 72" fill="none" xmlns="http://www.w3.org/2000/svg">
<g clip-path="url(#clip0_143_10577)">
<path d="M33.1147 34.69C32.9653 34.4051 32.8119 34.1214 32.6692 33.8338C31.4753 31.437 30.3135 29.0242 29.0703 26.6541C28.6954 25.939 28.1552 25.2892 27.5963 24.698C26.4051 23.4384 25.1685 23.2519 23.6172 23.9989C21.9418 24.8059 20.8239 26.1534 20.257 27.8618C19.3379 30.6288 18.5469 33.4384 17.7386 36.2413C17.4077 37.3864 17.1756 38.5595 16.7968 39.7273C16.7208 38.8431 16.6794 37.955 16.5634 37.0762C16.2712 34.8618 16.0338 32.6354 15.5963 30.4503C15.3989 29.4676 14.904 28.4743 14.3117 27.6541C13.3406 26.3079 11.1316 26.2546 9.92042 27.4024C9.3535 27.939 9.19743 28.5995 9.34283 29.3478C9.9631 32.5369 10.5927 35.7246 11.1983 38.9164C11.7319 41.7246 12.3335 44.5169 13.498 47.1427C13.8955 48.0402 14.4531 48.8804 15.028 49.682C15.4149 50.2213 16.0565 50.3398 16.6447 49.9989C17.5225 49.4903 18.4042 48.9656 19.1899 48.3305C19.5474 48.0415 19.7808 47.4956 19.8902 47.0256C20.5425 44.2253 21.0534 41.3904 21.787 38.6141C22.4073 36.2679 23.2517 33.979 24.0254 31.674C24.1761 31.224 24.4535 30.8152 24.755 30.2226C25.0418 30.6261 25.2752 30.8804 25.4233 31.176C26.249 32.8165 27.0053 34.4956 27.8817 36.1081C28.7368 37.6794 29.6679 39.2146 30.6523 40.71C30.9898 41.2226 31.534 41.6621 32.0783 41.9683C33.7964 42.9377 35.5705 42.4597 36.3895 40.6807C36.9644 39.4304 37.3566 38.0615 37.6061 36.7047C38.137 33.8125 38.4998 30.8897 38.9773 27.987C39.1094 27.1854 39.3762 26.4024 39.635 25.6288C39.739 25.3172 39.9911 25.0535 40.2806 24.6035C40.6874 25.3025 41.0262 25.8352 41.317 26.3904C42.4802 28.6061 43.554 30.8751 45.2868 32.7366C46.5634 34.1081 48.0027 35.2679 49.8648 35.6794C53.1009 36.3944 55.7741 35.3598 57.843 32.8125C59.4398 30.8458 60.1974 28.473 60.9711 26.1135C61.3139 25.0695 61.6888 24.0362 62.0476 22.9989C62.1196 22.9989 62.1916 22.9989 62.265 22.9989C62.5251 24.212 62.8439 25.417 63.036 26.6407C64.0418 33.0722 63.2775 39.2919 60.4042 45.1467C55.6474 54.8418 47.9266 60.8645 37.2539 62.7726C23.3224 65.2639 9.82037 58.4663 3.42953 45.9111C0.550921 40.2586 -0.604259 34.22 0.302811 27.9364C2.19832 14.8218 9.48956 5.88176 22.0285 1.62477C36.1828 -3.18082 51.7897 2.99494 59.237 15.9097C59.4651 16.3052 59.5185 16.6354 59.3557 17.0828C58.5674 19.2666 57.8564 21.4783 57.0547 23.6567C56.3184 25.6594 54.9458 27.2905 53.7065 28.9843C52.9275 30.0495 51.739 30.232 50.5438 29.6501C49.3339 29.0615 48.5469 28.0429 47.8853 26.9284C47.1396 25.6714 46.49 24.3571 45.7243 23.1135C45.076 22.0602 44.3864 21.0189 43.6021 20.0642C41.4611 17.4543 38.6398 18.192 36.7603 20.0642C35.4398 21.3784 34.8582 23.1121 34.5474 24.8871C34.1432 27.1933 33.8977 29.5289 33.5949 31.8525C33.4722 32.7886 33.3775 33.7273 33.2708 34.6647C33.2174 34.6727 33.1654 34.6807 33.1121 34.6887L33.1147 34.69Z" fill="#90A1B9"/>
<path d="M116.065 40.5292H109.87C109.87 40.2403 109.87 39.9833 109.87 39.725C109.87 34.9393 109.884 30.1524 109.857 25.3668C109.852 24.5319 109.755 23.6797 109.563 22.8688C108.976 20.4027 107.225 19.0112 104.709 18.9207C102.107 18.8275 99.9618 20.207 99.2321 22.5945C98.9387 23.5519 98.8093 24.5931 98.7999 25.5971C98.7559 30.2949 98.7799 34.9926 98.7799 39.689V40.5159H92.5798C92.5798 40.2509 92.5798 39.9939 92.5798 39.7383C92.5718 34.709 92.5825 29.6784 92.5345 24.6491C92.5265 23.8448 92.3491 23.0126 92.0889 22.2483C91.3579 20.0911 89.6118 18.93 87.2388 18.9127C84.8137 18.8941 82.8168 20.1817 82.0418 22.4294C81.715 23.3748 81.5256 24.4147 81.5149 25.4147C81.4616 30.1777 81.4909 34.942 81.4909 39.7063V40.5226H75.3428V13.8967H81.4909V17.6451C83.6385 14.9673 86.1783 13.2602 89.7332 13.3069C93.2681 13.3535 95.8319 14.8954 97.458 17.7942C98.7119 16.7622 99.8591 15.5346 101.252 14.729C104.64 12.7702 108.236 12.6943 111.684 14.5186C114.86 16.199 115.924 19.2323 116.005 22.6118C116.101 26.5971 116.052 30.5865 116.062 34.5745C116.066 36.3029 116.062 38.0312 116.062 39.7596C116.062 39.9993 116.062 40.2376 116.062 40.5306L116.065 40.5292Z" fill="#90A1B9"/>
<path d="M210.117 40.529H204.044V37.3746C203.442 37.9032 202.968 38.3892 202.429 38.7847C198.478 41.6768 194.229 41.9072 189.936 39.79C186.884 38.2853 185.648 35.5543 185.851 32.1935C186.101 28.035 188.609 25.28 192.994 24.3892C196.43 23.6915 199.839 23.9325 203.208 24.8606C203.46 24.9298 203.715 24.9911 203.972 25.0576C204.45 22.2947 202.757 19.8153 199.945 19.1948C197.249 18.5996 194.604 18.9458 192.009 19.7953C191.297 20.0283 190.593 20.288 189.823 20.5583C189.263 18.9232 188.715 17.32 188.153 15.6768C190.277 14.7234 192.424 13.9671 194.708 13.6768C197.253 13.3532 199.801 13.2973 202.329 13.8526C206.525 14.774 209.209 17.6062 209.869 21.8619C210.021 22.8433 210.103 23.8433 210.108 24.8366C210.132 29.778 210.119 34.7194 210.119 39.6608V40.5277L210.117 40.529ZM198.26 28.3253C196.531 28.3213 194.84 28.4851 193.389 29.553C191.266 31.1136 191.425 34.3066 193.681 35.6502C194.975 36.4212 196.394 36.5463 197.855 36.4718C201.911 36.264 204.205 33.8726 204.169 29.9205C204.165 29.4851 204.019 29.2947 203.622 29.1735C201.874 28.6382 200.093 28.3253 198.26 28.3253Z" fill="#90A1B9"/>
<path d="M145.702 29.3883H126.105C126.527 32.0408 127.693 34.0847 130.086 35.2964C132.652 36.596 137.09 36.8703 141.055 32.9702C142.238 34.0155 143.425 35.0647 144.654 36.1486C142.637 38.4309 140.3 40.126 137.32 40.7598C133.398 41.5934 129.608 41.2458 126.164 39.0621C122.102 36.4868 120.168 32.6639 119.973 27.9289C119.811 23.9875 120.891 20.4535 123.538 17.4509C128.273 12.0794 136.801 12.1673 141.288 16.1859C143.58 18.2378 144.918 20.8264 145.438 23.7958C145.729 25.4589 145.691 27.1792 145.793 28.8743C145.802 29.0221 145.742 29.1726 145.703 29.3856L145.702 29.3883ZM139.727 25.2791C139.425 21.1393 136.542 18.2219 132.89 18.3044C129.245 18.387 126.239 21.4655 126.109 25.2791H139.727Z" fill="#90A1B9"/>
<path d="M264.414 33.067C265.569 34.091 266.707 35.1003 267.883 36.1429C266.66 37.6249 265.229 38.7581 263.584 39.6183C260.96 40.9925 258.153 41.304 255.251 40.9645C251.268 40.4998 248.057 38.6902 245.759 35.3906C244.201 33.1536 243.47 30.6356 243.382 27.9126C243.261 24.2175 244.165 20.8446 246.55 17.9658C249.037 14.9632 252.259 13.4372 256.182 13.3733C259.495 13.32 262.445 14.2401 264.891 16.5211C267.047 18.5304 268.254 21.0763 268.745 23.9299C269.005 25.4399 268.974 26.9991 269.088 28.5344C269.134 29.1602 268.837 29.2974 268.257 29.296C262.305 29.2787 256.351 29.2841 250.399 29.2867C250.095 29.2867 249.791 29.3173 249.368 29.3387C249.494 29.9019 249.572 30.3959 249.714 30.8713C250.906 34.8806 254.558 36.4904 258.052 36.1869C260.38 35.9845 262.269 34.9419 263.963 33.4345C264.092 33.32 264.232 33.2148 264.415 33.067H264.414ZM263.174 25.312C262.857 22.8699 262.094 20.7288 259.98 19.348C257.697 17.8566 255.268 17.7834 252.936 19.1629C250.659 20.5104 249.687 22.7181 249.34 25.312H263.174Z" fill="#90A1B9"/>
<path d="M221.679 17.8972C222.087 17.4098 222.476 16.9052 222.904 16.4364C225.213 13.9078 228.104 13.0929 231.455 13.4577C236.43 13.9997 238.813 17.8639 239.186 21.527C239.252 22.1635 239.31 22.804 239.312 23.4431C239.321 28.8266 239.317 34.2101 239.317 39.5936C239.317 40.167 239.022 40.4546 238.431 40.4564C236.943 40.4577 235.454 40.4364 233.967 40.4671C233.412 40.4791 233.252 40.2966 233.253 39.7467C233.272 34.8506 233.301 29.9544 233.234 25.0596C233.22 24.0037 232.976 22.8972 232.586 21.9131C231.798 19.9198 230.152 19.021 228.056 18.8745C224.104 18.5976 221.695 21.3472 221.56 24.6189C221.54 25.1049 221.484 25.5896 221.482 26.0743C221.476 30.5936 221.468 35.1129 221.49 39.6322C221.493 40.258 221.33 40.4884 220.673 40.4711C219.141 40.4285 217.607 40.4431 216.075 40.4657C215.566 40.4737 215.388 40.3286 215.389 39.788C215.406 31.3699 215.405 22.9518 215.39 14.5323C215.39 14.0197 215.562 13.8958 216.044 13.9038C217.643 13.9291 219.243 13.9318 220.842 13.9038C221.352 13.8945 221.5 14.0756 221.485 14.5576C221.457 15.4431 221.474 16.3299 221.48 17.2154C221.48 17.4271 221.505 17.6402 221.518 17.8519C221.572 17.8679 221.625 17.8825 221.677 17.8985L221.679 17.8972Z" fill="#90A1B9"/>
<path d="M164.647 13.8341V19.0938H157.474V19.9021C157.474 23.9127 157.538 27.926 157.454 31.9353C157.389 35.0672 159.303 35.7795 161.621 35.472C162.598 35.3428 163.547 35.0219 164.54 34.7809C164.54 36.2682 164.553 37.7955 164.522 39.3215C164.518 39.5039 164.324 39.7689 164.149 39.8515C161.105 41.2922 157.973 41.4853 154.86 40.1897C152.549 39.2283 151.623 37.2083 151.365 34.8501C151.269 33.9726 151.255 33.0818 151.253 32.1977C151.242 28.1204 151.247 24.0419 151.247 19.9646V19.1018H147.907V13.8608H151.231V6.5918H157.451V13.8341H164.644H164.647Z" fill="#90A1B9"/>
<path d="M287.835 34.793C287.835 36.3656 287.847 37.8636 287.816 39.3602C287.813 39.5174 287.588 39.7278 287.416 39.8143C285.46 40.801 283.377 41.1352 281.217 40.8649C280.281 40.7477 279.32 40.572 278.449 40.2258C276.319 39.3789 275.218 37.6652 274.878 35.4654C274.73 34.5094 274.701 33.5267 274.697 32.556C274.678 28.3909 274.689 24.2244 274.689 20.058C274.689 19.3656 274.332 19.0189 273.619 19.018C273.019 19.018 272.418 19.0034 271.819 19.022C271.437 19.034 271.255 18.9288 271.262 18.5014C271.283 17.1499 271.281 15.7983 271.262 14.4468C271.257 14.046 271.386 13.8915 271.797 13.9049C272.506 13.9288 273.221 13.8756 273.928 13.9222C274.515 13.9594 274.706 13.7504 274.698 13.1712C274.671 11.2657 274.687 9.36024 274.689 7.45478C274.689 6.59859 274.691 6.59859 275.576 6.59859C277.087 6.59859 278.598 6.62123 280.108 6.58661C280.651 6.57329 280.782 6.75705 280.775 7.27103C280.749 9.26437 280.783 11.2604 280.753 13.2537C280.745 13.7917 280.924 13.9288 281.437 13.9222C283.414 13.8969 285.392 13.9248 287.369 13.9035C287.839 13.8982 287.984 14.05 287.975 14.5134C287.948 15.8196 287.945 17.1286 287.975 18.4348C287.985 18.9235 287.792 19.03 287.349 19.026C285.393 19.0087 283.438 19.034 281.484 19.01C280.952 19.0034 280.75 19.1405 280.753 19.7118C280.775 23.9887 280.758 28.2644 280.769 32.5413C280.773 34.4202 281.92 35.6266 283.801 35.56C284.933 35.52 286.058 35.2058 287.184 35.0061C287.372 34.9728 287.552 34.8875 287.833 34.7943L287.835 34.793Z" fill="#90A1B9"/>
<path d="M168.819 13.8819H174.911V19.4571C176.941 15.6742 179.713 13.1216 184.367 13.3613V19.798C183.835 19.8326 183.285 19.83 182.748 19.9099C178.562 20.5264 175.988 23.0097 175.242 27.2081C175.056 28.2494 174.967 29.3186 174.955 30.3759C174.918 33.4984 174.942 36.6222 174.942 39.7461V40.5144H168.82V13.8819H168.819Z" fill="#90A1B9"/>
<path d="M266.089 56.0822C266.116 55.8279 266.174 55.5736 266.164 55.3206C266.086 53.4711 266.4 51.7054 267.275 50.0583C267.41 49.8053 267.539 49.5336 267.734 49.3312C267.92 49.1382 268.209 48.8865 268.419 48.9145C268.622 48.9398 268.89 49.2647 268.945 49.5003C269.122 50.2727 269.224 51.0623 269.336 51.8479C269.405 52.3286 269.398 52.8252 269.512 53.294C269.572 53.5403 269.777 53.8479 269.992 53.9264C270.149 53.9837 270.503 53.7653 270.635 53.5762C271.003 53.0543 271.343 52.503 271.619 51.9278C272.194 50.732 272.699 49.5017 273.279 48.3086C273.528 47.796 273.83 47.2753 274.231 46.8825C274.487 46.6308 275.012 46.4431 275.33 46.5323C275.578 46.6015 275.863 47.1528 275.841 47.4711C275.745 48.9904 275.552 50.503 275.392 52.0183C275.336 52.5456 275.217 53.0742 275.237 53.5975C275.26 54.1994 275.597 54.3499 276.072 53.9797C276.54 53.6135 276.943 53.1635 277.374 52.7493C278.668 51.507 279.946 50.246 281.266 49.033C281.598 48.728 282.044 48.5043 282.476 48.3592C283.217 48.1102 283.766 48.6002 283.542 49.3432C283.321 50.0756 283 50.796 282.612 51.4577C281.973 52.5456 281.236 53.5749 280.561 54.6415C280.278 55.0889 280 55.5536 279.812 56.045C279.688 56.3672 279.73 56.752 279.696 57.1102C280.05 57.0782 280.437 57.1275 280.747 56.997C281.42 56.7147 282.04 56.3099 282.707 56.0117C283.857 55.4964 285.012 54.9837 286.194 54.5509C286.738 54.3512 287.441 54.1688 287.844 54.776C288.265 55.4138 287.739 55.9504 287.325 56.3326C286.155 57.4138 284.937 58.4458 283.701 59.4497C282.618 60.3299 281.465 61.1275 280.379 62.005C279.926 62.3712 279.273 62.8559 279.544 63.4458C279.724 63.8372 280.447 64.0822 280.97 64.1941C281.745 64.3592 282.57 64.282 283.349 64.4298C283.958 64.5456 284.606 64.74 285.103 65.0916C285.791 65.5789 285.731 66.258 284.963 66.6082C284.004 67.045 282.988 67.4071 281.96 67.6282C280.369 67.9704 278.751 67.9145 277.187 67.6069C277.439 66.5643 277.811 65.5802 277.9 64.5709C278.201 61.0889 276.691 58.475 273.736 56.7094C271.661 55.4697 269.396 55.2513 267.053 55.8505C266.732 55.9331 266.409 56.005 266.088 56.0822H266.089Z" fill="#90A1B9"/>
<path d="M266.089 56.0814C266.256 56.883 266.422 57.6846 266.593 58.4875C266.402 58.622 266.216 58.7698 266.012 58.883C263.953 60.0268 262.867 62.3757 263.396 64.5528C264.123 67.5461 267.187 69.3757 270.209 68.6127C271.514 68.2838 272.604 67.6287 273.408 66.5115C273.32 66.4343 273.279 66.381 273.225 66.3517C270.177 64.7192 268.134 62.2292 266.924 59.0242C266.849 58.8271 266.693 58.662 266.574 58.4809C267.091 58.4103 267.606 58.3291 268.123 58.2705C270.367 58.0175 272.213 58.7592 273.488 60.6207C274.721 62.4183 274.677 64.3104 273.58 66.1839C273.536 66.2585 273.503 66.3397 273.392 66.5648C274.542 66.9549 275.656 67.3344 276.911 67.7605C276.421 68.3637 275.993 69.0042 275.457 69.5355C270.995 73.9549 262.845 72.2612 261.081 65.8191C260.104 62.2479 261.872 58.3624 265.291 56.5994C265.573 56.4542 265.825 56.2558 266.09 56.0814V56.0801L266.089 56.0814Z" fill="#90A1B9"/>
<path d="M194.506 62.4264C195.815 61.7021 196.546 61.7687 197.941 62.8832C198.659 62.0975 199.57 61.8552 200.593 62.0496C201.644 62.2493 202.327 63.0536 202.385 64.2334C202.439 65.3599 202.441 66.4944 202.378 67.6195C202.365 67.8725 202.024 68.2587 201.776 68.3133C201.343 68.4091 201.1 68.0589 201.096 67.6182C201.087 66.6661 201.096 65.7127 201.091 64.7607C201.085 63.73 200.644 63.1868 199.805 63.1695C198.948 63.1521 198.356 63.7167 198.309 64.6928C198.264 65.6209 198.285 66.5529 198.299 67.4837C198.305 67.9644 198.2 68.3532 197.634 68.3386C197.1 68.3239 197.029 67.9218 197.032 67.4864C197.037 66.5782 197.048 65.6701 197.028 64.762C197.004 63.7167 196.554 63.1894 195.722 63.1708C194.888 63.1521 194.286 63.7234 194.226 64.7034C194.169 65.6302 194.198 66.5623 194.201 67.493C194.201 67.9298 194.132 68.3306 193.595 68.3386C193.034 68.3465 192.93 67.9591 192.934 67.477C192.947 66.015 192.916 64.5529 192.955 63.0922C192.964 62.766 193.106 62.276 193.334 62.1668C193.578 62.0509 193.996 62.296 194.505 62.4264H194.506Z" fill="#90A1B9"/>
<path d="M221.25 62.8941C221.25 62.0246 221.254 61.2549 221.249 60.4853C221.246 60.0658 221.337 59.7063 221.845 59.713C222.351 59.7183 222.432 60.0765 222.431 60.4973C222.426 62.7969 222.427 65.0965 222.431 67.3961C222.431 67.8035 222.46 68.3042 221.923 68.2922C221.637 68.2856 221.358 67.922 221.002 67.6677C220.454 68.219 219.576 68.5891 218.635 68.3348C217.965 68.1537 217.257 67.7849 216.78 67.2922C215.715 66.1923 215.827 64.1111 216.879 62.9713C217.973 61.7862 219.568 61.7276 221.252 62.8941H221.25ZM217.267 65.235C217.279 66.452 218.134 67.3455 219.272 67.3282C220.39 67.3122 221.293 66.3654 221.293 65.2097C221.293 64.0312 220.347 63.0618 219.209 63.0778C218.076 63.0938 217.255 64.0046 217.267 65.235Z" fill="#90A1B9"/>
<path d="M183.347 64.9448C183.928 65.6586 184.538 66.4162 185.16 67.1659C185.441 67.5068 185.631 67.8743 185.218 68.2032C184.826 68.5161 184.477 68.3203 184.19 67.9662C183.592 67.2271 182.985 66.4961 182.385 65.7638C181.702 66.2311 181.178 66.7198 181.33 67.6199C181.398 68.0261 181.149 68.319 180.726 68.335C180.267 68.3523 180.033 68.0634 180.032 67.6199C180.025 65.2271 180.025 62.8343 180.028 60.4415C180.028 60.0101 180.204 59.7025 180.688 59.7012C181.175 59.7012 181.339 60.0088 181.341 60.4429C181.342 61.7278 181.341 63.0128 181.341 64.2977C181.341 64.5121 181.341 64.7278 181.341 65.1073C182.345 64.1259 183.231 63.2458 184.138 62.3856C184.302 62.2298 184.549 62.078 184.758 62.0767C184.929 62.0767 185.216 62.2804 185.246 62.4335C185.288 62.6492 185.206 62.9595 185.061 63.1286C184.527 63.7451 183.944 64.319 183.347 64.9435V64.9448Z" fill="#90A1B9"/>
<path d="M172.115 65.7178C172.318 67.024 173.56 67.6432 174.807 67.1013C175.047 66.9961 175.243 66.7644 175.487 66.7018C175.749 66.6352 176.044 66.6991 176.324 66.7071C176.281 67.0001 176.345 67.3929 176.178 67.5686C175.327 68.4648 173.646 68.6778 172.461 68.1106C171.284 67.5473 170.586 66.2904 170.704 64.9468C170.828 63.5274 171.695 62.4501 173.004 62.0906C174.835 61.5873 176.574 62.8323 176.724 64.7551C176.783 65.5034 176.594 65.7138 175.835 65.7178C174.598 65.7231 173.36 65.7191 172.114 65.7191L172.115 65.7178ZM175.341 64.6366C175.253 63.7204 174.648 63.1226 173.812 63.0946C172.973 63.0667 172.267 63.7031 172.122 64.6366H175.341Z" fill="#90A1B9"/>
<path d="M188.872 68.4243C187.02 68.4403 185.569 67.0688 185.524 65.2605C185.478 63.4669 186.966 62.0035 188.845 61.9942C190.725 61.9849 192.149 63.3444 192.161 65.1566C192.173 67.0155 190.773 68.407 188.872 68.4243ZM190.849 65.2552C190.862 64.0674 189.99 63.1473 188.847 63.146C187.727 63.1433 186.839 64.0448 186.834 65.1886C186.828 66.3018 187.735 67.2472 188.832 67.2685C189.962 67.2911 190.835 66.419 190.849 65.2565V65.2552Z" fill="#90A1B9"/>
<path d="M238.442 65.6931C238.418 66.8289 239.681 67.7051 241.071 67.243C241.358 67.1472 241.594 66.8888 241.882 66.8063C242.138 66.7317 242.434 66.7956 242.713 66.7983C242.653 67.0659 242.681 67.4215 242.517 67.5879C241.643 68.476 239.973 68.6638 238.791 68.0619C237.636 67.4747 236.96 66.1578 237.139 64.8422C237.409 62.8515 239.058 61.6731 240.938 62.1259C242.206 62.4321 243.167 63.7437 243.097 65.046C243.068 65.5919 242.727 65.6918 242.285 65.6918C241.219 65.6918 240.153 65.6918 239.088 65.6918C238.871 65.6918 238.657 65.6918 238.442 65.6918V65.6931ZM241.834 64.7557C241.759 63.6598 241.056 63.0087 240.029 63.0593C239.129 63.1045 238.426 63.8569 238.461 64.7557H241.834Z" fill="#90A1B9"/>
<path d="M255.866 64.5486C255.71 63.5725 255.386 63.1984 254.518 63.1598C253.958 63.1358 253.393 63.3435 252.824 63.3781C252.563 63.3941 252.16 63.3302 252.049 63.1584C251.824 62.8056 252.101 62.5499 252.454 62.4141C253.391 62.0506 254.361 61.972 255.332 62.2024C256.385 62.4527 256.966 63.2117 256.993 64.3275C257.018 65.3688 257 66.4101 257 67.4514C257 67.8069 257.05 68.2556 256.577 68.2836C256.303 68.2996 256.012 68.0399 255.632 67.8588C254.885 68.3954 253.912 68.5632 252.87 68.2436C251.975 67.9693 251.457 67.3076 251.442 66.4554C251.426 65.5819 251.879 64.8562 252.799 64.6391C253.559 64.4594 254.373 64.4993 255.163 64.4607C255.374 64.45 255.588 64.5113 255.864 64.5486H255.866ZM254.333 65.2769C254.04 65.3435 253.583 65.3741 253.194 65.5499C252.548 65.8402 252.458 66.6351 252.964 67.0852C253.779 67.8096 255.486 67.3715 255.828 66.3488C256.04 65.7163 255.931 65.5246 255.273 65.4061C255.013 65.3595 254.748 65.3329 254.334 65.2769H254.333Z" fill="#90A1B9"/>
<path d="M226.583 68.3958C224.696 68.3891 223.329 67.0416 223.339 65.2C223.35 63.3918 224.781 62.0083 226.631 62.0176C228.478 62.0269 229.905 63.4371 229.893 65.2387C229.881 67.0456 228.459 68.4024 226.583 68.3958ZM224.542 65.1734C224.533 66.3945 225.403 67.3265 226.574 67.3479C227.757 67.3705 228.678 66.461 228.691 65.2573C228.704 64.0709 227.792 63.1002 226.641 63.0775C225.459 63.0536 224.551 63.9604 224.541 65.1734H224.542Z" fill="#90A1B9"/>
<path d="M167.784 61.2526C167.058 61.2526 166.419 61.2526 165.78 61.2526C165.384 61.2526 165.057 61.1407 165.051 60.6747C165.045 60.2193 165.365 60.0528 165.755 60.0502C167.553 60.0382 169.351 60.0382 171.149 60.0488C171.57 60.0515 171.907 60.2299 171.88 60.716C171.855 61.186 171.492 61.2499 171.111 61.2526C171 61.2526 170.889 61.2526 170.777 61.2526C169.681 61.2552 169.132 61.814 169.132 62.929C169.132 64.4124 169.131 65.8957 169.132 67.3791C169.132 67.8504 169.084 68.3285 168.479 68.3325C167.841 68.3365 167.781 67.8478 167.781 67.3458C167.785 65.3551 167.783 63.3658 167.783 61.2512L167.784 61.2526Z" fill="#90A1B9"/>
<path d="M211.149 62.5649C211.701 62.1228 212.485 61.9005 213.367 62.0842C214.471 62.3146 215.173 63.0869 215.212 64.2107C215.252 65.3599 215.217 66.513 215.23 67.6635C215.236 68.0709 215.03 68.3705 214.665 68.3026C214.43 68.2587 214.097 67.9085 214.081 67.6768C214.014 66.73 214.059 65.7753 214.048 64.8232C214.038 63.7207 213.502 63.1002 212.564 63.0829C211.594 63.0643 210.895 63.7673 210.871 64.8232C210.851 65.73 210.863 66.6382 210.866 67.5463C210.866 67.9644 210.763 68.3346 210.267 68.3226C209.773 68.3106 209.696 67.9391 209.697 67.5197C209.707 65.9924 209.681 64.4651 209.719 62.9378C209.725 62.6675 209.929 62.228 210.12 62.1814C210.367 62.1215 210.69 62.3772 211.147 62.5663L211.149 62.5649Z" fill="#90A1B9"/>
<path d="M232.226 62.5826C232.821 62.0832 233.652 61.8888 234.578 62.1152C235.527 62.3469 236.214 63.0406 236.272 64.006C236.345 65.2404 236.34 66.4827 236.301 67.7184C236.294 67.9288 235.973 68.2617 235.754 68.3016C235.379 68.3695 235.173 68.0793 235.169 67.6758C235.161 66.6145 235.199 65.5493 235.111 64.4934C235.007 63.251 233.728 62.6398 232.729 63.3775C232.354 63.6545 232.051 64.2177 231.99 64.6878C231.868 65.6012 231.935 66.5413 231.935 67.4694C231.935 67.8955 231.907 68.3283 231.358 68.3243C230.824 68.3203 230.764 67.8995 230.765 67.4681C230.771 65.9634 230.747 64.4588 230.787 62.9554C230.793 62.6811 231.005 62.2257 231.191 62.1871C231.451 62.1338 231.776 62.3922 232.225 62.5813L232.226 62.5826Z" fill="#90A1B9"/>
<path d="M246.003 68.5065C245.32 68.2735 244.63 68.0578 243.956 67.7995C243.598 67.6623 243.32 67.3774 243.532 66.9713C243.748 66.5558 244.087 66.7209 244.45 66.8528C245.042 67.0685 245.66 67.2456 246.283 67.3308C246.718 67.3907 247.203 67.1697 247.181 66.673C247.169 66.4014 246.81 66.0685 246.526 65.906C246.171 65.7023 245.729 65.6504 245.328 65.5212C244.062 65.1137 243.575 64.4826 243.764 63.5052C243.936 62.6144 244.902 61.9553 246.02 62.0525C246.564 62.0991 247.102 62.2695 247.629 62.4306C248.017 62.5492 248.345 62.8022 248.134 63.2642C247.933 63.7023 247.573 63.5345 247.219 63.4173C246.763 63.2655 246.279 63.0725 245.819 63.0978C245.504 63.1151 245.209 63.4786 244.905 63.6863C245.121 63.9273 245.293 64.2509 245.562 64.3894C245.989 64.6091 246.486 64.6916 246.943 64.8567C248.026 65.2482 248.497 65.8847 248.361 66.7409C248.212 67.6796 247.453 68.3055 246.379 68.3721C246.268 68.3787 246.157 68.3721 246.045 68.3721C246.031 68.416 246.016 68.4599 246.001 68.5039L246.003 68.5065Z" fill="#90A1B9"/>
<path d="M178.827 64.0221C178.827 65.1939 178.821 66.367 178.831 67.5387C178.835 68.0061 178.685 68.3443 178.171 68.335C177.69 68.327 177.564 67.9888 177.566 67.5574C177.571 65.1899 177.571 62.8237 177.566 60.4562C177.566 60.0247 177.682 59.6998 178.183 59.7012C178.715 59.7025 178.834 60.0487 178.83 60.5041C178.822 61.6759 178.827 62.849 178.827 64.0208V64.0221Z" fill="#90A1B9"/>
<path d="M208.162 64.1851C208.162 65.3156 208.151 66.4447 208.167 67.5752C208.173 67.988 208.056 68.3102 207.614 68.3209C207.143 68.3329 206.981 68.008 206.983 67.5659C206.988 65.3062 206.987 63.0453 206.983 60.7856C206.983 60.3462 207.144 60.02 207.62 60.0399C208.067 60.0586 208.17 60.3888 208.166 60.7949C208.153 61.9254 208.161 63.0546 208.161 64.1851H208.162Z" fill="#90A1B9"/>
<path d="M250.542 65.2508C250.542 66.0458 250.583 66.8447 250.517 67.6356C250.495 67.882 250.214 68.2548 249.994 68.3014C249.587 68.388 249.363 68.0604 249.363 67.645C249.359 66.0324 249.356 64.4186 249.363 62.8061C249.364 62.4039 249.53 62.1123 249.992 62.1296C250.47 62.1483 250.549 62.4692 250.545 62.8647C250.537 63.6596 250.542 64.4559 250.542 65.2508Z" fill="#90A1B9"/>
<path d="M158.16 65.7077C158.589 65.6438 158.979 65.504 159.343 65.5506C159.862 65.6172 160.185 65.986 160.302 66.5173C160.437 67.1245 160.342 67.6678 159.852 68.0739C159.442 68.4148 158.971 68.4454 158.49 68.1897C158.394 68.1378 158.289 68.0393 158.2 68.0499C157.515 68.1298 157.515 68.1378 157.515 67.4694C157.515 66.6545 157.499 65.8382 157.529 65.0233C157.535 64.8555 157.714 64.6931 157.814 64.5293C157.929 64.7011 158.096 64.8582 158.145 65.0473C158.202 65.2683 158.158 65.5147 158.158 65.7077H158.16ZM159.695 67.0007C159.702 66.4534 159.399 66.0899 158.973 66.0699C158.526 66.0499 158.153 66.4334 158.145 66.9194C158.137 67.3948 158.517 67.8209 158.953 67.7876C159.462 67.7477 159.671 67.4148 159.696 67.002L159.695 67.0007Z" fill="#90A1B9"/>
<path d="M162.085 67.517C162.316 66.9138 162.482 66.4104 162.706 65.9351C162.78 65.778 163.007 65.6927 163.165 65.5742C163.205 65.7633 163.329 65.9843 163.27 66.1375C162.956 66.9617 162.614 67.7766 162.248 68.5796C162.028 69.0629 161.622 69.2586 161.1 69.0829C160.985 69.0443 160.91 68.8858 160.818 68.7819C160.928 68.7034 161.041 68.5503 161.145 68.5569C161.892 68.6062 161.773 68.2347 161.56 67.7806C161.298 67.2214 161.038 66.6608 160.818 66.0842C160.767 65.9511 160.882 65.754 160.921 65.5862C161.073 65.6714 161.3 65.7207 161.365 65.8499C161.618 66.3572 161.82 66.8911 162.085 67.5196V67.517Z" fill="#90A1B9"/>
</g>
<defs>
<clipPath id="clip0_143_10577">
<rect width="288" height="72" fill="white"/>
</clipPath>
</defs>
</svg>
